<?xml version="1.0" encoding="UTF-8"?><svg id="Livello_2" xmlns="http://www.w3.org/2000/svg" viewBox="0 0 392.11 115.65"><defs><style>.cls-1{fill:#38b44a;}.cls-1,.cls-2,.cls-3{stroke-width:0px;}.cls-2{fill:#a5dd81;}.cls-3{fill:#fff;}</style></defs><g id="Livello_1-2"><path class="cls-1" d="m366.43,109c0,4.56,2.09,6.65,6,6.65s6.71-2.09,6.71-6.65v-9.32c0-4.43,2.09-5.8,5.67-6.71l3.65-.91c2.28-.59,3.65-2.67,3.65-5.99,0-2.93-1.37-6.19-5.47-6.19-3.85,0-6.45,3.32-8.73,9.52h-.13v-2.61c0-5.08-2.67-6.91-5.99-6.91s-5.35,2.09-5.35,6.65v22.48Zm-19.37-10.55c0,4.04-1.63,6.65-4.96,6.65s-4.96-2.02-4.96-5.74v-12.84c0-4.56-2.8-6.65-6.71-6.65s-6,2.09-6,6.65v15.97c0,7.43,3.07,13.16,12.39,13.16,5.15,0,8.87-2.28,11.09-6.32h.13c.46,4.04,2.02,6.32,5.99,6.32,4.43,0,6.45-2.21,6.45-6.38v-22.75c0-4.56-2.8-6.65-6.71-6.65s-6.71,2.09-6.71,6.65v11.93Zm-39.75-.33c0,5.67-2.79,8.54-6.38,8.54s-6.38-2.87-6.38-8.54c0-6.39,2.8-9.26,6.38-9.26s6.38,2.87,6.38,9.26m-25.48-.39c0,12.39,8.4,17.92,19.1,17.92s19.09-5.54,19.09-17.92-8.4-17.86-19.09-17.86-19.1,5.54-19.1,17.86m-18.74,5.54h-.13l-4.5-17.34c-1.17-4.5-2.22-6.06-6.58-6.06-3.52,0-6.19,2.22-6.19,5.67,0,1.83.59,3.45,1.5,6.06l6.97,19.42c1.56,4.43,4.11,4.63,8.67,4.63s7.3-.2,8.86-4.63l6.97-19.42c.91-2.54,1.3-4.24,1.3-6.06,0-3.45-2.67-5.67-6.19-5.67-4.37,0-5.47,2.35-6.39,6.06l-4.3,17.34Zm-21-13.37c0-8.4-10.94-10.03-18.05-10.03-9.32,0-16.36,3.26-16.36,8.27,0,2.67,1.56,4.17,4.23,4.17,4.56,0,5.93-4.63,11.73-4.63,3.59,0,5.41,1.17,5.41,3.32,0,2.28-2.02,3-7.04,3.33-13.36.85-17.27,5.09-17.27,10.76,0,7.49,5.28,10.55,12.7,10.55,4.63,0,9.39-1.5,12-5.4.46,3.06,2.15,5.4,6.78,5.4,3.19,0,6.25-1.43,6.25-4.75,0-1.63-.39-3.71-.39-6.06v-14.93Zm-13.03,13.43c0,2.54-2.61,4.89-6.39,4.89-2.15,0-4.11-1.3-4.11-3.33,0-1.43.72-2.35,1.83-2.8,2.41-.98,6.78-.59,8.68-2.61v3.85Zm-66.54-19.38c-4.36,0-5.34,1.95-5.34,4.62s.98,4.62,5.34,4.62v15.74c0,4.63,2.34,6.71,6.51,6.71s6.51-2.09,6.51-6.71v-15.74h2.67c2.67,0,4.18-1.95,4.18-4.62s-1.5-4.62-4.18-4.62h-2.67v-1.2c0-1.04.65-2.28,1.5-2.28,5.09,0,6.59-1.56,6.59-4.69,0-2.74-.99-5.08-8.68-5.08s-12.43,4.49-12.43,12.11v1.13Zm25.07,25.04c0,4.56,2.8,6.65,6.71,6.65s6.71-2.09,6.71-6.65v-31.06c0-4.56-2.07-6.65-6.61-6.65-5.09,0-6.81,2.09-6.81,6.65v31.06Z"/><path class="cls-3" d="m132.7,83.88h-2.5c-2.7,0-4.21,1.96-4.21,4.65s1.51,4.65,4.21,4.65h2.5v10.96c0,7.69,4.21,11.5,11.83,11.5s9.47-2.37,9.47-5.13c0-3.15-1.51-4.73-6.65-4.73-.85,0-1.51-.53-1.51-1.58v-11.02h3.24c2.7,0,4.21-1.96,4.21-4.65s-1.51-4.65-4.21-4.65h-3.24v-5.86c0-4.67-1.66-6.78-5.87-6.78-5.2,0-7.28,2.11-7.28,6.78v5.86Zm-23.62,25.06c0,4.6,2.83,6.71,6.77,6.71s6.77-2.11,6.77-6.71v-16.12c0-7.5-3.81-13.28-13.21-13.28-5.2,0-8.95,2.3-11.19,6.38h-.13c-.46-4.08-2.04-6.38-6.05-6.38-4.47,0-6.51,2.23-6.51,6.44v22.96c0,4.6,2.83,6.71,6.77,6.71s6.77-2.11,6.77-6.71v-12.04c0-4.08,1.65-6.71,5-6.71s5,2.04,5,5.79v12.96Zm-44.01,0c0,4.6,3.54,6.71,7.48,6.71s6.77-2.11,6.77-6.71v-22.69c0-4.6-2.83-6.71-6.77-6.71s-7.48,2.11-7.48,6.71v22.69Zm-19.95,0c0,4.6,2.83,6.71,6.77,6.71s6.77-2.11,6.77-6.71v-16.12c0-7.5-4.52-13.28-13.86-13.28-4.81,0-7.85,1.84-10.75,6.64-1.18-4.67-6.49-6.64-10.9-6.64-5.2,0-8.24,2.3-10.48,6.38h-.13c-.46-4.08-2.75-6.38-6.76-6.38s-5.8,2.23-5.8,6.44v22.96c0,4.6,2.83,6.71,6.77,6.71s6.77-2.11,6.77-6.71v-12.57c0-3.81,2.24-6.18,4.54-6.18,3.03,0,4.48,1.51,4.48,5.79v12.96c0,4.6,2.83,6.71,6.77,6.71s6.77-2.11,6.77-6.71v-12.57c0-3.81,2.24-6.18,4.54-6.18,3.03,0,4.48,1.51,4.48,5.79v12.96Z"/><path class="cls-2" d="m75.77,62.31c-.84-2.54-1.69-4.59-2.54-7.24-6.46.96-12.38-.33-18.13-2.75,2.91.37,12.89,1.9,17.74,1.06-3.72-9.37-5.72-12.49-5.85-12.48-8.93.71-14.46-1.56-17.61-3.19-.04-.01,10.38,1.82,16.87,1.45-3.51-6.9-7.66-12.34-7.66-12.34,0,0-8.66,1.18-13.32-1.66,4.01.74,8.01,1.35,12.46.45-2.29-2.87-7.89-9.79-7.89-9.79,0,0-4.08-.11-7.2-1.87,4.42.96,5.33,1.02,6.38.94-2.61-2.72-7.04-7.41-6.94-7.51.88.87,4.53,3.82,6.89,5.96l.99.96c-.11-3.63-.91-6.06-.91-6.06,0,0,1.64,2.49,1.95,6.89,0,0,7.12,8.36,7.92,9.83,0,0,1.25-2.78,1.61-10.12h0c1.85,5.31-.61,11.51-.61,11.51,0,0,4.11,4.66,7.86,12,3.84-5.12,6.25-10.41,6.96-16.42.47,4.19-.4,8.64-2.21,12.34-1.99,3.97-3.82,5.89-3.82,5.89,0,0,3.54,6.58,5.52,12.67,3.83-2.69,6.8-8.22,8.5-12.19-1.42,9.64-7.94,14.03-7.94,14.03.7,2.67,1.24,8.44.98,7.67m10.25-31.23c-.49.38-.81.64-1.33,1.05-1.38-6.02-3.49-11.6-8.41-16.1-.24.47-.47.91-.81,1.58-.32-.49-5.63-9.42-14.56-11.43.14.17-.99,1.84-.99,1.63-2.64-2.23-7.16-5.14-11.8-5.95l-.08,1.65c-2.68-1.64-8.46-3.51-14.37-3.51,1.14,3.96,1.65,6.81,1.33,9.95-.22.02-.82-.29-1.48-.66-.45,3.66.66,8.55,2.22,11.16-.23.03-.63.07-1.73.18.55,4.52,2.43,8.11,5.42,11.96-.61.07-1.46.17-2.53.3.69,5.26,2.72,9.78,6.57,13.78-.47.08-1.59.22-2.08.26,2.41,6.27,5.76,11.6,11.6,15.4-.44.17-.73.28-1.46.55,1.7,1.3,8.95,7.5,24.99,8.4,1.02.04,1.6-.35,2.22-.79,6.69-4.79,9.99-11.59,11.77-19.47h-1.41c.81-6.89,1.12-13.61-3.07-19.93"/><path class="cls-1" d="m102.08,46.72c3.29-3.42,4.98-7.21,5.6-11.66,0,0-1.73.14-2.27.02,1.87-1.53,4.11-5.95,4.82-9.92,0,0-2.04.52-1.98.42,2.53-4.22,2.43-8.27,2.41-8.22l-1.56.42s2.12-4.91.98-10.52c-5.37,2.16-14.71,1.23-20.83,5.98l-.25-2.11c-3.14.12-7.28,2.6-9.62,6.11,4.01,4.31,6.19,12.44,6.19,12.44l.85-.85c3.77,4.71,5.95,13.18,4.23,20.14.46.07.88-.11,1.44-.02-.87,6.52-2.58,11.5-6.43,17.39,5.3-1.49,9.65-4.97,12.94-9.38,2.3-3.07,3.97-6.03,5.5-9.92-.85-.15-1.32-.23-2.02-.35"/></g></svg>