<?xml version="1.0" encoding="UTF-8"?>
<svg id="Livello_2" data-name="Livello 2" xmlns="http://www.w3.org/2000/svg" viewBox="0 0 140.28 41.37">
  <defs>
    <style>
      .cls-1 {
        fill: #46ae4d;
      }

      .cls-1, .cls-2, .cls-3 {
        stroke-width: 0px;
      }

      .cls-2 {
        fill: #1e1e1c;
      }

      .cls-3 {
        fill: #a6cd80;
      }
    </style>
  </defs>
  <g id="testo">
    <g>
      <path class="cls-1" d="m131.09,39c0,1.63.75,2.38,2.15,2.38s2.4-.75,2.4-2.38v-3.33c0-1.59.75-2.07,2.03-2.4l1.31-.33c.82-.21,1.31-.96,1.31-2.14,0-1.05-.49-2.22-1.96-2.22-1.38,0-2.31,1.19-3.12,3.4h-.05v-.93c0-1.82-.96-2.47-2.14-2.47s-1.91.75-1.91,2.38v8.04Zm-6.93-3.78c0,1.45-.58,2.38-1.77,2.38s-1.77-.72-1.77-2.05v-4.59c0-1.63-1-2.38-2.4-2.38s-2.15.75-2.15,2.38v5.71c0,2.66,1.1,4.71,4.43,4.71,1.84,0,3.17-.82,3.97-2.26h.05c.16,1.44.72,2.26,2.14,2.26,1.58,0,2.31-.79,2.31-2.28v-8.14c0-1.63-1-2.38-2.4-2.38s-2.4.75-2.4,2.38v4.27Zm-14.22-.12c0,2.03-1,3.06-2.28,3.06s-2.28-1.03-2.28-3.06c0-2.29,1-3.31,2.28-3.31s2.28,1.03,2.28,3.31m-9.11-.14c0,4.43,3.01,6.41,6.83,6.41s6.83-1.98,6.83-6.41-3.01-6.39-6.83-6.39-6.83,1.98-6.83,6.39m-6.71,1.98h-.05l-1.61-6.2c-.42-1.61-.79-2.17-2.35-2.17-1.26,0-2.21.79-2.21,2.03,0,.65.21,1.24.54,2.17l2.49,6.95c.56,1.59,1.47,1.66,3.1,1.66s2.61-.07,3.17-1.66l2.5-6.95c.33-.91.47-1.52.47-2.17,0-1.24-.96-2.03-2.21-2.03-1.56,0-1.96.84-2.28,2.17l-1.54,6.2Zm-7.51-4.78c0-3.01-3.91-3.59-6.46-3.59-3.34,0-5.85,1.16-5.85,2.96,0,.96.56,1.49,1.51,1.49,1.63,0,2.12-1.66,4.2-1.66,1.28,0,1.94.42,1.94,1.19,0,.82-.72,1.07-2.52,1.19-4.78.3-6.18,1.82-6.18,3.85,0,2.68,1.89,3.78,4.54,3.78,1.66,0,3.36-.54,4.29-1.93.16,1.09.77,1.93,2.42,1.93,1.14,0,2.24-.51,2.24-1.7,0-.58-.14-1.33-.14-2.17v-5.34Zm-4.66,4.81c0,.91-.93,1.75-2.29,1.75-.77,0-1.47-.47-1.47-1.19,0-.51.26-.84.65-1,.86-.35,2.43-.21,3.1-.93v1.38Zm-23.81-6.93c-1.56,0-1.91.7-1.91,1.65s.35,1.65,1.91,1.65v5.63c0,1.66.84,2.4,2.33,2.4s2.33-.75,2.33-2.4v-5.63h.96c.96,0,1.49-.7,1.49-1.65s-.54-1.65-1.49-1.65h-.96v-.43c0-.37.23-.81.54-.81,1.82,0,2.36-.56,2.36-1.68,0-.98-.35-1.82-3.11-1.82s-4.45,1.6-4.45,4.33v.4Zm8.97,8.96c0,1.63,1,2.38,2.4,2.38s2.4-.75,2.4-2.38v-11.11c0-1.63-.74-2.38-2.37-2.38-1.82,0-2.44.75-2.44,2.38v11.11Z"/>
      <path class="cls-2" d="m47.47,30.01h-.89c-.97,0-1.51.7-1.51,1.66s.54,1.66,1.51,1.66h.89v3.92c0,2.75,1.51,4.12,4.23,4.12s3.39-.85,3.39-1.83c0-1.13-.54-1.69-2.38-1.69-.31,0-.54-.19-.54-.57v-3.94h1.16c.96,0,1.51-.7,1.51-1.66s-.54-1.66-1.51-1.66h-1.16v-2.1c0-1.67-.59-2.42-2.1-2.42-1.86,0-2.61.75-2.61,2.42v2.1Zm-8.45,8.96c0,1.65,1.01,2.4,2.42,2.4s2.42-.75,2.42-2.4v-5.77c0-2.68-1.36-4.75-4.73-4.75-1.86,0-3.2.82-4,2.28h-.05c-.16-1.46-.73-2.28-2.16-2.28-1.6,0-2.33.8-2.33,2.3v8.21c0,1.65,1.01,2.4,2.42,2.4s2.42-.75,2.42-2.4v-4.31c0-1.46.59-2.4,1.79-2.4s1.79.73,1.79,2.07v4.64Zm-15.74,0c0,1.65,1.26,2.4,2.68,2.4s2.42-.75,2.42-2.4v-8.12c0-1.65-1.01-2.4-2.42-2.4s-2.68.75-2.68,2.4v8.12Zm-7.14,0c0,1.65,1.01,2.4,2.42,2.4s2.42-.75,2.42-2.4v-5.77c0-2.68-1.62-4.75-4.96-4.75-1.72,0-2.81.66-3.84,2.38-.42-1.67-2.32-2.38-3.9-2.38-1.86,0-2.95.82-3.75,2.28h-.05c-.16-1.46-.98-2.28-2.42-2.28s-2.07.8-2.07,2.3v8.21c0,1.65,1.01,2.4,2.42,2.4s2.42-.75,2.42-2.4v-4.5c0-1.36.8-2.21,1.63-2.21,1.08,0,1.6.54,1.6,2.07v4.64c0,1.65,1.01,2.4,2.42,2.4s2.42-.75,2.42-2.4v-4.5c0-1.36.8-2.21,1.63-2.21,1.08,0,1.6.54,1.6,2.07v4.64Z"/>
      <path class="cls-3" d="m27.11,22.29c-.3-.91-.61-1.64-.91-2.59-2.31.35-4.43-.12-6.49-.98,1.04.13,4.61.68,6.35.38-1.33-3.35-2.05-4.47-2.09-4.47-3.19.25-5.17-.56-6.3-1.14-.02,0,3.72.65,6.04.52-1.26-2.47-2.74-4.42-2.74-4.42,0,0-3.1.42-4.76-.59,1.43.27,2.87.48,4.46.16-.82-1.03-2.82-3.5-2.82-3.5,0,0-1.46-.04-2.58-.67,1.58.35,1.91.37,2.28.33-.93-.97-2.52-2.65-2.48-2.69.31.31,1.62,1.37,2.46,2.13l.35.34c-.04-1.3-.32-2.17-.32-2.17,0,0,.59.89.7,2.47,0,0,2.55,2.99,2.83,3.52,0,0,.45-.99.57-3.62h0c.66,1.9-.22,4.12-.22,4.12,0,0,1.47,1.67,2.81,4.29,1.37-1.83,2.24-3.73,2.49-5.87.17,1.5-.14,3.09-.79,4.41-.71,1.42-1.37,2.11-1.37,2.11,0,0,1.27,2.35,1.98,4.53,1.37-.96,2.43-2.94,3.04-4.36-.51,3.45-2.84,5.02-2.84,5.02.25.95.44,3.02.35,2.74m3.67-11.17c-.17.14-.29.23-.48.38-.49-2.15-1.25-4.15-3.01-5.76-.09.17-.17.32-.29.56-.12-.17-2.02-3.37-5.21-4.09.05.06-.36.66-.35.58-.94-.8-2.56-1.84-4.22-2.13l-.03.59c-.96-.59-3.02-1.25-5.14-1.25.41,1.42.59,2.44.48,3.56-.08,0-.29-.1-.53-.24-.16,1.31.24,3.06.8,3.99-.08,0-.23.02-.62.06.2,1.62.87,2.9,1.94,4.28-.22.03-.52.06-.91.11.25,1.88.97,3.5,2.35,4.93-.17.03-.57.08-.74.09.86,2.24,2.06,4.15,4.15,5.51-.16.06-.26.1-.52.2.61.47,3.2,2.68,8.94,3,.37.01.57-.13.79-.28,2.4-1.71,3.57-4.14,4.21-6.97h-.5c.29-2.47.4-4.87-1.1-7.13"/>
      <path class="cls-1" d="m36.52,16.72c1.18-1.22,1.78-2.58,2-4.17,0,0-.62.05-.81,0,.67-.55,1.47-2.13,1.72-3.55,0,0-.73.19-.71.15.91-1.51.87-2.96.86-2.94l-.56.15s.76-1.76.35-3.76c-1.92.77-5.26.44-7.45,2.14l-.09-.75c-1.12.04-2.6.93-3.44,2.19,1.43,1.54,2.22,4.45,2.22,4.45l.3-.3c1.35,1.68,2.13,4.72,1.51,7.21.16.03.32-.04.52,0-.31,2.33-.92,4.11-2.3,6.22,1.9-.53,3.45-1.78,4.63-3.36.82-1.1,1.42-2.16,1.97-3.55-.31-.05-.47-.08-.72-.12"/>
    </g>
  </g>
</svg>